# xmcd
#
# Track frame offsets: 
#        150
#        21418
#        41608
#        63214
#        83553
#        101927
#        124007
#        143731
#        160522
#        178205
#        196529
#        211338
#        230139
#        251550
#        270225
#        287805
#        306473
#        322722
#        339823
#
# Disc length: 4770 seconds
#
# Revision: 0
# Processed by: cddbd v1.5.2PL0 Copyright (c) Steve Scherf et al.
# Submitted via: ExactAudioCopy v0.99pb3
#
DISCID=0412a013
DTITLE=Elias Bass - Just Music
DYEAR=2007
DGENRE=Ethnic
TTITLE0=Boul dioye
TTITLE1=Nina
TTITLE2=Seyna Mousso
TTITLE3=Xamna
TTITLE4=Ce monde est fou
TTITLE5=Touki Kat
TTITLE6=Beut
TTITLE7=Get Crazy
TTITLE8=Sopelékou
TTITLE9=Diola
TTITLE10=Makomome
TTITLE11=Marley déwoul
TTITLE12=Merna
TTITLE13=Nimamél
TTITLE14=Yomboul
TTITLE15=Borom tol
TTITLE16=Faléme river
TTITLE17=Mame Fat'Bass
TTITLE18=Aduna
EXTD=
EXTT0=
EXTT1=
EXTT2=
EXTT3=
EXTT4=
EXTT5=
EXTT6=
EXTT7=
EXTT8=
EXTT9=
EXTT10=
EXTT11=
EXTT12=
EXTT13=
EXTT14=
EXTT15=
EXTT16=
EXTT17=
EXTT18=
PLAYORDER=
